<svg width="168" height="64" viewBox="0 0 168 64" fill="none" xmlns="http://www.w3.org/2000/svg">
<path d="M28.2356 41L37.2356 19.85H41.4956L50.4956 41H45.6656L43.7456 36.29H34.8656L32.9456 41H28.2356ZM36.5156 32.21H42.0956L39.3056 25.4L36.5156 32.21ZM53.7368 41V20H63.4868C65.8868 20 67.7768 20.66 68.9768 21.86C69.9368 22.82 70.4168 23.99 70.4168 25.43V25.49C70.4168 27.86 69.1568 29.18 67.6568 30.02C70.0868 30.95 71.5868 32.36 71.5868 35.18V35.24C71.5868 39.08 68.4668 41 63.7268 41H53.7368ZM58.2368 28.49H62.4968C64.5368 28.49 65.8268 27.83 65.8268 26.27V26.21C65.8268 24.83 64.7468 24.05 62.7968 24.05H58.2368V28.49ZM58.2368 36.95H63.7268C65.7668 36.95 66.9968 36.23 66.9968 34.67V34.61C66.9968 33.2 65.9468 32.33 63.5768 32.33H58.2368V36.95ZM85.5872 41.36C79.1072 41.36 74.4572 36.53 74.4572 30.56V30.5C74.4572 24.53 79.1672 19.64 85.6472 19.64C92.1272 19.64 96.7772 24.47 96.7772 30.44V30.5C96.7772 36.47 92.0672 41.36 85.5872 41.36ZM85.6472 37.1C89.3672 37.1 91.9472 34.16 91.9472 30.56V30.5C91.9472 26.9 89.3072 23.9 85.5872 23.9C81.8672 23.9 79.2872 26.84 79.2872 30.44V30.5C79.2872 34.1 81.9272 37.1 85.6472 37.1ZM109.635 41.33C103.995 41.33 100.545 38.18 100.545 32V20H105.165V31.88C105.165 35.3 106.875 37.07 109.695 37.07C112.515 37.07 114.225 35.36 114.225 32.03V20H118.845V31.85C118.845 38.21 115.275 41.33 109.635 41.33ZM128.441 41V24.26H122.051V20H139.451V24.26H133.061V41H128.441Z" fill="#D4D8D2"/>
</svg>
