<svg width="186" height="52" viewBox="0 0 186 52" fill="none" xmlns="http://www.w3.org/2000/svg">
<path d="M55.8238 32L61.8238 17.9H64.6638L70.6638 32H67.4438L66.1638 28.86H60.2438L58.9638 32H55.8238ZM61.3438 26.14H65.0638L63.2038 21.6L61.3438 26.14ZM72.8245 32V18H79.3245C80.9245 18 82.1845 18.44 82.9845 19.24C83.6245 19.88 83.9445 20.66 83.9445 21.62V21.66C83.9445 23.24 83.1045 24.12 82.1045 24.68C83.7245 25.3 84.7245 26.24 84.7245 28.12V28.16C84.7245 30.72 82.6445 32 79.4845 32H72.8245ZM75.8245 23.66H78.6645C80.0245 23.66 80.8845 23.22 80.8845 22.18V22.14C80.8845 21.22 80.1645 20.7 78.8645 20.7H75.8245V23.66ZM75.8245 29.3H79.4845C80.8445 29.3 81.6645 28.82 81.6645 27.78V27.74C81.6645 26.8 80.9645 26.22 79.3845 26.22H75.8245V29.3ZM94.0581 32.24C89.7381 32.24 86.6381 29.02 86.6381 25.04V25C86.6381 21.02 89.7781 17.76 94.0981 17.76C98.4181 17.76 101.518 20.98 101.518 24.96V25C101.518 28.98 98.3781 32.24 94.0581 32.24ZM94.0981 29.4C96.5781 29.4 98.2981 27.44 98.2981 25.04V25C98.2981 22.6 96.5381 20.6 94.0581 20.6C91.5781 20.6 89.8581 22.56 89.8581 24.96V25C89.8581 27.4 91.6181 29.4 94.0981 29.4ZM110.09 32.22C106.33 32.22 104.03 30.12 104.03 26V18H107.11V25.92C107.11 28.2 108.25 29.38 110.13 29.38C112.01 29.38 113.15 28.24 113.15 26.02V18H116.23V25.9C116.23 30.14 113.85 32.22 110.09 32.22ZM122.628 32V20.84H118.368V18H129.968V20.84H125.708V32H122.628Z" fill="#D4D8D2"/>
</svg>
