<svg width="324" height="44" viewBox="0 0 324 44" fill="none" xmlns="http://www.w3.org/2000/svg">
<path d="M0.44 43L18.44 0.699997H26.96L44.96 43H35.3L31.46 33.58H13.7L9.86 43H0.44ZM17 25.42H28.16L22.58 11.8L17 25.42ZM51.4423 43V0.999997H70.9423C75.7423 0.999997 79.5223 2.32 81.9223 4.72C83.8423 6.64 84.8023 8.98 84.8023 11.86V11.98C84.8023 16.72 82.2823 19.36 79.2823 21.04C84.1423 22.9 87.1423 25.72 87.1423 31.36V31.48C87.1423 39.16 80.9023 43 71.4223 43H51.4423ZM60.4423 17.98H68.9623C73.0423 17.98 75.6223 16.66 75.6223 13.54V13.42C75.6223 10.66 73.4623 9.1 69.5623 9.1H60.4423V17.98ZM60.4423 34.9H71.4223C75.5023 34.9 77.9623 33.46 77.9623 30.34V30.22C77.9623 27.4 75.8623 25.66 71.1223 25.66H60.4423V34.9ZM115.143 43.72C102.183 43.72 92.8831 34.06 92.8831 22.12V22C92.8831 10.06 102.303 0.279999 115.263 0.279999C128.223 0.279999 137.523 9.94 137.523 21.88V22C137.523 33.94 128.103 43.72 115.143 43.72ZM115.263 35.2C122.703 35.2 127.863 29.32 127.863 22.12V22C127.863 14.8 122.583 8.8 115.143 8.8C107.703 8.8 102.543 14.68 102.543 21.88V22C102.543 29.2 107.823 35.2 115.263 35.2ZM163.24 43.66C151.96 43.66 145.06 37.36 145.06 25V0.999997H154.3V24.76C154.3 31.6 157.72 35.14 163.36 35.14C169 35.14 172.42 31.72 172.42 25.06V0.999997H181.66V24.7C181.66 37.42 174.52 43.66 163.24 43.66ZM200.851 43V9.52H188.071V0.999997H222.871V9.52H210.091V43H200.851ZM265.486 43.66C254.206 43.66 247.306 37.36 247.306 25V0.999997H256.546V24.76C256.546 31.6 259.966 35.14 265.606 35.14C271.246 35.14 274.666 31.72 274.666 25.06V0.999997H283.906V24.7C283.906 37.42 276.766 43.66 265.486 43.66ZM308.257 43.6C301.897 43.6 295.477 41.38 290.437 36.88L295.897 30.34C299.677 33.46 303.637 35.44 308.437 35.44C312.217 35.44 314.497 33.94 314.497 31.48V31.36C314.497 29.02 313.057 27.82 306.037 26.02C297.577 23.86 292.117 21.52 292.117 13.18V13.06C292.117 5.44 298.237 0.399998 306.817 0.399998C312.937 0.399998 318.157 2.32 322.417 5.74L317.617 12.7C313.897 10.12 310.237 8.56 306.697 8.56C303.157 8.56 301.297 10.18 301.297 12.22V12.34C301.297 15.1 303.097 16 310.357 17.86C318.877 20.08 323.677 23.14 323.677 30.46V30.58C323.677 38.92 317.317 43.6 308.257 43.6Z" fill="white"/>
</svg>
