<svg width="418" height="68" viewBox="0 0 418 68" fill="none" xmlns="http://www.w3.org/2000/svg">
<path d="M16.3199 43.48C11.2319 43.48 6.09594 41.704 2.06394 38.104L6.43194 32.872C9.45594 35.368 12.6239 36.952 16.4639 36.952C19.4879 36.952 21.3119 35.752 21.3119 33.784V33.688C21.3119 31.816 20.1599 30.856 14.5439 29.416C7.77594 27.688 3.40794 25.816 3.40794 19.144V19.048C3.40794 12.952 8.30394 8.92 15.1679 8.92C20.0639 8.92 24.2399 10.456 27.6479 13.192L23.8079 18.76C20.8319 16.696 17.9039 15.448 15.0719 15.448C12.2399 15.448 10.7519 16.744 10.7519 18.376V18.472C10.7519 20.68 12.1919 21.4 17.9999 22.888C24.8159 24.664 28.6559 27.112 28.6559 32.968V33.064C28.6559 39.736 23.5679 43.48 16.3199 43.48ZM35.0711 43V9.4H42.4631V22.696H56.0951V9.4H63.4871V43H56.0951V29.512H42.4631V43H35.0711ZM87.8598 43.576C77.4918 43.576 70.0518 35.848 70.0518 26.296V26.2C70.0518 16.648 77.5878 8.824 87.9558 8.824C98.3238 8.824 105.764 16.552 105.764 26.104V26.2C105.764 35.752 98.2278 43.576 87.8598 43.576ZM87.9558 36.76C93.9078 36.76 98.0358 32.056 98.0358 26.296V26.2C98.0358 20.44 93.8118 15.64 87.8598 15.64C81.9078 15.64 77.7798 20.344 77.7798 26.104V26.2C77.7798 31.96 82.0038 36.76 87.9558 36.76ZM112.321 43V9.4H126.049C134.065 9.4 138.913 14.152 138.913 21.016V21.112C138.913 28.888 132.865 32.92 125.329 32.92H119.713V43H112.321ZM119.713 26.344H125.569C129.265 26.344 131.425 24.136 131.425 21.256V21.16C131.425 17.848 129.121 16.072 125.425 16.072H119.713V26.344ZM144.384 43V9.4H158.112C166.128 9.4 170.976 14.152 170.976 21.016V21.112C170.976 28.888 164.928 32.92 157.392 32.92H151.776V43H144.384ZM151.776 26.344H157.632C161.328 26.344 163.488 24.136 163.488 21.256V21.16C163.488 17.848 161.184 16.072 157.488 16.072H151.776V26.344ZM176.782 43V9.4H184.174V43H176.782ZM192.571 43V9.4H199.387L215.131 30.088V9.4H222.427V43H216.139L199.867 21.64V43H192.571ZM246.669 43.576C236.205 43.576 229.005 36.232 229.005 26.296V26.2C229.005 16.648 236.445 8.824 246.621 8.824C252.669 8.824 256.317 10.456 259.821 13.432L255.165 19.048C252.573 16.888 250.269 15.64 246.381 15.64C241.005 15.64 236.733 20.392 236.733 26.104V26.2C236.733 32.344 240.957 36.856 246.909 36.856C249.597 36.856 251.997 36.184 253.869 34.84V30.04H246.429V23.656H261.021V38.248C257.565 41.176 252.813 43.576 246.669 43.576ZM298.268 43.576C288.38 43.576 281.036 35.944 281.036 26.296V26.2C281.036 16.648 288.236 8.824 298.556 8.824C304.892 8.824 308.684 10.936 311.804 14.008L307.1 19.432C304.508 17.08 301.868 15.64 298.508 15.64C292.844 15.64 288.764 20.344 288.764 26.104V26.2C288.764 31.96 292.748 36.76 298.508 36.76C302.348 36.76 304.7 35.224 307.34 32.824L312.044 37.576C308.588 41.272 304.748 43.576 298.268 43.576ZM315.082 43L329.482 9.16H336.298L350.698 43H342.97L339.898 35.464H325.69L322.618 43H315.082ZM328.33 28.936H337.258L332.794 18.04L328.33 28.936ZM355.884 43V9.4H371.244C375.516 9.4 378.828 10.6 381.036 12.808C382.908 14.68 383.916 17.32 383.916 20.488V20.584C383.916 26.008 380.988 29.416 376.716 31L384.924 43H376.284L369.084 32.248H363.276V43H355.884ZM363.276 25.72H370.764C374.364 25.72 376.428 23.8 376.428 20.968V20.872C376.428 17.704 374.22 16.072 370.62 16.072H363.276V25.72ZM398.395 43V16.216H388.171V9.4H416.011V16.216H405.787V43H398.395Z" fill="#465240"/>
<line x1="134" y1="67" x2="284" y2="67" stroke="#465240" stroke-width="2"/>
</svg>
