<svg width="88" height="52" viewBox="0 0 88 52" fill="none" xmlns="http://www.w3.org/2000/svg">
<path d="M8.24 32.24C4.12 32.24 1.06 29.06 1.06 25.04V25C1.06 21.02 4.06 17.76 8.36 17.76C11 17.76 12.58 18.64 13.88 19.92L11.92 22.18C10.84 21.2 9.74 20.6 8.34 20.6C5.98 20.6 4.28 22.56 4.28 24.96V25C4.28 27.4 5.94 29.4 8.34 29.4C9.94 29.4 10.92 28.76 12.02 27.76L13.98 29.74C12.54 31.28 10.94 32.24 8.24 32.24ZM22.855 32.24C18.535 32.24 15.435 29.02 15.435 25.04V25C15.435 21.02 18.575 17.76 22.895 17.76C27.215 17.76 30.315 20.98 30.315 24.96V25C30.315 28.98 27.175 32.24 22.855 32.24ZM22.895 29.4C25.375 29.4 27.095 27.44 27.095 25.04V25C27.095 22.6 25.335 20.6 22.855 20.6C20.375 20.6 18.655 22.56 18.655 24.96V25C18.655 27.4 20.415 29.4 22.895 29.4ZM33.0472 32V18H43.7072V20.8H36.1272V23.78H42.8072V26.58H36.1272V32H33.0472ZM46.1722 32V18H56.8322V20.8H49.2522V23.78H55.9322V26.58H49.2522V32H46.1722ZM59.2972 32V18H69.8572V20.74H62.3572V23.58H68.9572V26.32H62.3572V29.26H69.9572V32H59.2972ZM72.6956 32V18H83.2556V20.74H75.7556V23.58H82.3556V26.32H75.7556V29.26H83.3556V32H72.6956Z" fill="#7D9174"/>
</svg>
