<svg width="48" height="51" viewBox="0 0 48 51" fill="none" xmlns="http://www.w3.org/2000/svg">
<ellipse cx="24" cy="25.5" rx="24" ry="25.5" fill="#CED0C0"/>
<path fill-rule="evenodd" clip-rule="evenodd" d="M36.9189 21.6984V34.1597C36.9189 35.2642 36.0235 36.1597 34.9189 36.1597H29.4324C29.7727 35.5714 29.9674 34.8883 29.9674 34.1598V28.9477C29.9674 27.7671 29.4458 26.6467 28.5423 25.8867L26.5748 24.2316C25.0864 22.9796 22.9133 22.9796 21.4249 24.2316L19.4574 25.8867C18.5539 26.6467 18.0323 27.7671 18.0323 28.9477V34.1598C18.0323 34.8883 18.227 35.5714 18.5673 36.1597H13.0811C11.9765 36.1597 11.0811 35.2642 11.0811 34.1597V21.6984C11.0811 21.1458 11.3097 20.6178 11.7127 20.2397L22.6316 9.99703C23.4011 9.27524 24.5989 9.27524 25.3683 9.99703L36.2872 20.2397C36.6902 20.6178 36.9189 21.1458 36.9189 21.6984ZM22.0055 36.1597C20.9133 36.1453 20.0323 35.2555 20.0323 34.1598V28.9477C20.0323 28.3574 20.2931 27.7972 20.7448 27.4172L22.7124 25.7621C23.4566 25.1361 24.5431 25.1361 25.2873 25.7621L27.2549 27.4172C27.7066 27.7972 27.9674 28.3574 27.9674 28.9477V34.1598C27.9674 35.2555 27.0864 36.1453 25.9942 36.1597H22.0055ZM21.9946 38.1597H13.0811C10.8719 38.1597 9.08105 36.3688 9.08105 34.1597V21.6984C9.08105 20.5932 9.53834 19.5372 10.3444 18.7811L21.2633 8.53837C22.8022 7.0948 25.1977 7.09479 26.7366 8.53837L37.6555 18.7811C38.4616 19.5372 38.9189 20.5932 38.9189 21.6984V34.1597C38.9189 36.3688 37.128 38.1597 34.9189 38.1597H26.0051C25.9925 38.1598 25.98 38.1598 25.9674 38.1598H22.0323C22.0197 38.1598 22.0072 38.1598 21.9946 38.1597Z" fill="white" fill-opacity="0.75"/>
</svg>
