<svg width="186" height="52" viewBox="0 0 186 52" fill="none" xmlns="http://www.w3.org/2000/svg">
<path d="M63.2054 32V18H66.2854V23.54H71.9654V18H75.0454V32H71.9654V26.38H66.2854V32H63.2054ZM85.2007 32.24C80.8807 32.24 77.7807 29.02 77.7807 25.04V25C77.7807 21.02 80.9207 17.76 85.2407 17.76C89.5607 17.76 92.6607 20.98 92.6607 24.96V25C92.6607 28.98 89.5207 32.24 85.2007 32.24ZM85.2407 29.4C87.7207 29.4 89.4407 27.44 89.4407 25.04V25C89.4407 22.6 87.6807 20.6 85.2007 20.6C82.7207 20.6 81.0007 22.56 81.0007 24.96V25C81.0007 27.4 82.7607 29.4 85.2407 29.4ZM95.3929 32V18H98.7129L102.393 23.92L106.073 18H109.393V32H106.333V22.86L102.393 28.84H102.313L98.4129 22.92V32H95.3929ZM112.756 32V18H123.316V20.74H115.816V23.58H122.416V26.32H115.816V29.26H123.416V32H112.756Z" fill="#D4D8D2"/>
</svg>
