<svg width="168" height="64" viewBox="0 0 168 64" fill="none" xmlns="http://www.w3.org/2000/svg">
<path d="M39.3081 41V20H43.9281V28.31H52.4481V20H57.0681V41H52.4481V32.57H43.9281V41H39.3081ZM72.3011 41.36C65.8211 41.36 61.1711 36.53 61.1711 30.56V30.5C61.1711 24.53 65.8811 19.64 72.3611 19.64C78.8411 19.64 83.4911 24.47 83.4911 30.44V30.5C83.4911 36.47 78.7811 41.36 72.3011 41.36ZM72.3611 37.1C76.0811 37.1 78.6611 34.16 78.6611 30.56V30.5C78.6611 26.9 76.0211 23.9 72.3011 23.9C68.5811 23.9 66.0011 26.84 66.0011 30.44V30.5C66.0011 34.1 68.6411 37.1 72.3611 37.1ZM87.5893 41V20H92.5693L98.0893 28.88L103.609 20H108.589V41H103.999V27.29L98.0893 36.26H97.9693L92.1193 27.38V41H87.5893ZM113.634 41V20H129.474V24.11H118.224V28.37H128.124V32.48H118.224V36.89H129.624V41H113.634Z" fill="#D4D8D2"/>
</svg>
