<svg width="100" height="52" viewBox="0 0 100 52" fill="none" xmlns="http://www.w3.org/2000/svg">
<path d="M1.82 32V18H4.9V32H1.82ZM14.9588 32.24C10.8388 32.24 7.77875 29.06 7.77875 25.04V25C7.77875 21.02 10.7788 17.76 15.0788 17.76C17.7188 17.76 19.2988 18.64 20.5988 19.92L18.6388 22.18C17.5588 21.2 16.4588 20.6 15.0588 20.6C12.6988 20.6 10.9988 22.56 10.9988 24.96V25C10.9988 27.4 12.6588 29.4 15.0588 29.4C16.6588 29.4 17.6388 28.76 18.7388 27.76L20.6988 29.74C19.2588 31.28 17.6588 32.24 14.9588 32.24ZM23.1644 32V18H33.7244V20.74H26.2244V23.58H32.8244V26.32H26.2244V29.26H33.8244V32H23.1644ZM36.5628 32V18H42.0228C46.4228 18 49.4628 21.02 49.4628 24.96V25C49.4628 28.94 46.4228 32 42.0228 32H36.5628ZM39.6428 29.22H42.0228C44.5428 29.22 46.2428 27.52 46.2428 25.04V25C46.2428 22.52 44.5428 20.78 42.0228 20.78H39.6428V29.22ZM61.4634 32V20.84H57.2034V18H68.8034V20.84H64.5434V32H61.4634ZM71.1722 32V18H81.7322V20.74H74.2322V23.58H80.8322V26.32H74.2322V29.26H81.8322V32H71.1722ZM83.3706 32L89.3706 17.9H92.2106L98.2106 32H94.9906L93.7106 28.86H87.7906L86.5106 32H83.3706ZM88.8906 26.14H92.6106L90.7506 21.6L88.8906 26.14Z" fill="#7D9174"/>
</svg>
