<svg width="186" height="52" viewBox="0 0 186 52" fill="none" xmlns="http://www.w3.org/2000/svg">
<path d="M3.55711 35V14H8.17711V30.8H18.6471V35H3.55711ZM31.1302 35.36C24.6502 35.36 20.0002 30.53 20.0002 24.56V24.5C20.0002 18.53 24.7102 13.64 31.1902 13.64C37.6702 13.64 42.3202 18.47 42.3202 24.44V24.5C42.3202 30.47 37.6102 35.36 31.1302 35.36ZM31.1902 31.1C34.9102 31.1 37.4902 28.16 37.4902 24.56V24.5C37.4902 20.9 34.8502 17.9 31.1302 17.9C27.4102 17.9 24.8302 20.84 24.8302 24.44V24.5C24.8302 28.1 27.4702 31.1 31.1902 31.1ZM56.2584 35.36C50.0784 35.36 45.4884 30.59 45.4884 24.56V24.5C45.4884 18.53 49.9884 13.64 56.4384 13.64C60.3984 13.64 62.7684 14.96 64.7184 16.88L61.7784 20.27C60.1584 18.8 58.5084 17.9 56.4084 17.9C52.8684 17.9 50.3184 20.84 50.3184 24.44V24.5C50.3184 28.1 52.8084 31.1 56.4084 31.1C58.8084 31.1 60.2784 30.14 61.9284 28.64L64.8684 31.61C62.7084 33.92 60.3084 35.36 56.2584 35.36ZM66.7669 35L75.7669 13.85H80.0269L89.0269 35H84.1969L82.2769 30.29H73.3969L71.4769 35H66.7669ZM75.0469 26.21H80.6269L77.8369 19.4L75.0469 26.21ZM94.4627 35V18.26H88.0727V14H105.473V18.26H99.0827V35H94.4627ZM109.236 35V14H113.856V35H109.236ZM129.304 35.36C122.824 35.36 118.174 30.53 118.174 24.56V24.5C118.174 18.53 122.884 13.64 129.364 13.64C135.844 13.64 140.494 18.47 140.494 24.44V24.5C140.494 30.47 135.784 35.36 129.304 35.36ZM129.364 31.1C133.084 31.1 135.664 28.16 135.664 24.56V24.5C135.664 20.9 133.024 17.9 129.304 17.9C125.584 17.9 123.004 20.84 123.004 24.44V24.5C123.004 28.1 125.644 31.1 129.364 31.1ZM144.592 35V14H148.852L158.692 26.93V14H163.252V35H159.322L149.152 21.65V35H144.592ZM175.763 35.3C172.583 35.3 169.373 34.19 166.853 31.94L169.583 28.67C171.473 30.23 173.453 31.22 175.853 31.22C177.743 31.22 178.883 30.47 178.883 29.24V29.18C178.883 28.01 178.163 27.41 174.653 26.51C170.423 25.43 167.693 24.26 167.693 20.09V20.03C167.693 16.22 170.753 13.7 175.043 13.7C178.103 13.7 180.713 14.66 182.843 16.37L180.443 19.85C178.583 18.56 176.753 17.78 174.983 17.78C173.213 17.78 172.283 18.59 172.283 19.61V19.67C172.283 21.05 173.183 21.5 176.813 22.43C181.073 23.54 183.473 25.07 183.473 28.73V28.79C183.473 32.96 180.293 35.3 175.763 35.3Z" fill="#D4D8D2"/>
</svg>
