<svg width="1440" height="119" viewBox="0 0 1440 119" fill="none" xmlns="http://www.w3.org/2000/svg">
<g filter="url(#filter0_d_175_623)">
<g filter="url(#filter1_d_175_623)">
<rect width="1440" height="90.9248" transform="matrix(1 0 0 -1 -2 90.9248)" fill="#7D9174"/>
</g>
</g>
<path d="M70.494 79.1797C68.24 79.1797 66.588 77.4437 66.588 75.3017V75.2737C66.588 73.1317 68.226 71.3677 70.522 71.3677C71.936 71.3677 72.818 71.8437 73.518 72.6277L72.216 74.0277C71.74 73.5237 71.264 73.2017 70.508 73.2017C69.444 73.2017 68.688 74.1397 68.688 75.2457V75.2737C68.688 76.4217 69.43 77.3457 70.592 77.3457C71.306 77.3457 71.796 77.0377 72.314 76.5477L73.56 77.8077C72.832 78.6057 71.992 79.1797 70.494 79.1797ZM77.078 79.1517C75.664 79.1517 74.502 78.3397 74.502 76.8557V76.8277C74.502 75.1897 75.748 74.4337 77.526 74.4337C78.282 74.4337 78.828 74.5597 79.36 74.7417V74.6157C79.36 73.7337 78.814 73.2437 77.75 73.2437C76.938 73.2437 76.364 73.3977 75.678 73.6497L75.146 72.0257C75.972 71.6617 76.784 71.4237 78.058 71.4237C79.22 71.4237 80.06 71.7317 80.592 72.2637C81.152 72.8237 81.404 73.6497 81.404 74.6577V79.0117H79.346V78.1997C78.828 78.7737 78.114 79.1517 77.078 79.1517ZM77.722 77.6817C78.716 77.6817 79.388 77.1357 79.388 76.3657V75.9877C79.024 75.8197 78.548 75.7077 78.03 75.7077C77.12 75.7077 76.56 76.0717 76.56 76.7437V76.7717C76.56 77.3457 77.036 77.6817 77.722 77.6817ZM83.5992 79.0117V73.3277H82.7172V71.5777H83.5992V71.1017C83.5992 70.2757 83.8092 69.6737 84.2012 69.2817C84.5932 68.8897 85.1672 68.6937 85.9232 68.6937C86.5952 68.6937 87.0432 68.7777 87.4352 68.9037V70.6677C87.1272 70.5557 86.8332 70.4857 86.4692 70.4857C85.9792 70.4857 85.6992 70.7377 85.6992 71.2977V71.5917H87.4212V73.3277H85.7272V79.0117H83.5992ZM92.0002 79.1797C89.7462 79.1797 88.0802 77.5977 88.0802 75.3017V75.2737C88.0802 73.1317 89.6062 71.3677 91.7902 71.3677C94.2962 71.3677 95.4442 73.3137 95.4442 75.4417C95.4442 75.6097 95.4302 75.8057 95.4162 76.0017H90.1942C90.4042 76.9677 91.0762 77.4717 92.0282 77.4717C92.7422 77.4717 93.2602 77.2477 93.8482 76.7017L95.0662 77.7797C94.3662 78.6477 93.3582 79.1797 92.0002 79.1797ZM90.1662 74.6717H93.3722C93.2462 73.7197 92.6862 73.0757 91.7902 73.0757C90.9082 73.0757 90.3342 73.7057 90.1662 74.6717Z" fill="white"/>
<path d="M30.856 63.0117V36.2277H20.632V29.4117H48.472V36.2277H38.248V63.0117H30.856ZM54.157 63.0117V29.4117H79.501V35.9877H61.501V42.8037H77.341V49.3797H61.501V56.4357H79.741V63.0117H54.157ZM83.4333 63.0117L97.8333 29.1717H104.649L119.049 63.0117H111.321L108.249 55.4757H94.0413L90.9693 63.0117H83.4333ZM96.6813 48.9477H105.609L101.145 38.0517L96.6813 48.9477ZM120.418 63.0117L134.818 29.1717H141.634L156.034 63.0117H148.306L145.234 55.4757H131.026L127.954 63.0117H120.418ZM133.666 48.9477H142.594L138.13 38.0517L133.666 48.9477Z" fill="white"/>
<path d="M101.5 37.0117L108.861 49.7617H94.1388L101.5 37.0117Z" fill="white"/>
<path d="M96.1878 56.3455C94.1739 55.1203 91.402 46.6969 99.0857 40.5325C101.717 44.034 103.852 45.9273 102.749 51.3567C103.802 49.6836 105.632 48.2016 108.659 47.8915C109.162 50.0969 109.489 54.8753 106.771 56.3455H96.1878Z" fill="#7D9174"/>
<defs>
<filter id="filter0_d_175_623" x="-6" y="7.62939e-06" width="1448" height="98.9248" filterUnits="userSpaceOnUse" color-interpolation-filters="sRGB">
<feFlood flood-opacity="0" result="BackgroundImageFix"/>
<feColorMatrix in="SourceAlpha" type="matrix" values="0 0 0 0 0 0 0 0 0 0 0 0 0 0 0 0 0 0 127 0" result="hardAlpha"/>
<feOffset dy="4"/>
<feGaussianBlur stdDeviation="2"/>
<feComposite in2="hardAlpha" operator="out"/>
<feColorMatrix type="matrix" values="0 0 0 0 0 0 0 0 0 0 0 0 0 0 0 0 0 0 0.25 0"/>
<feBlend mode="normal" in2="BackgroundImageFix" result="effect1_dropShadow_175_623"/>
<feBlend mode="normal" in="SourceGraphic" in2="effect1_dropShadow_175_623" result="shape"/>
</filter>
<filter id="filter1_d_175_623" x="-26" y="-20" width="1488" height="138.925" filterUnits="userSpaceOnUse" color-interpolation-filters="sRGB">
<feFlood flood-opacity="0" result="BackgroundImageFix"/>
<feColorMatrix in="SourceAlpha" type="matrix" values="0 0 0 0 0 0 0 0 0 0 0 0 0 0 0 0 0 0 127 0" result="hardAlpha"/>
<feMorphology radius="4" operator="dilate" in="SourceAlpha" result="effect1_dropShadow_175_623"/>
<feOffset dy="4"/>
<feGaussianBlur stdDeviation="10"/>
<feComposite in2="hardAlpha" operator="out"/>
<feColorMatrix type="matrix" values="0 0 0 0 0 0 0 0 0 0 0 0 0 0 0 0 0 0 0.25 0"/>
<feBlend mode="normal" in2="BackgroundImageFix" result="effect1_dropShadow_175_623"/>
<feBlend mode="normal" in="SourceGraphic" in2="effect1_dropShadow_175_623" result="shape"/>
</filter>
</defs>
</svg>
