<svg width="121" height="16" viewBox="0 0 121 16" fill="none" xmlns="http://www.w3.org/2000/svg">
<path d="M0.371406 15V0.999999H3.45141V12.2H10.4314V15H0.371406ZM18.7534 15.24C14.4334 15.24 11.3334 12.02 11.3334 8.04V8C11.3334 4.02 14.4734 0.76 18.7934 0.76C23.1134 0.76 26.2134 3.98 26.2134 7.96V8C26.2134 11.98 23.0734 15.24 18.7534 15.24ZM18.7934 12.4C21.2734 12.4 22.9934 10.44 22.9934 8.04V8C22.9934 5.6 21.2334 3.6 18.7534 3.6C16.2734 3.6 14.5534 5.56 14.5534 7.96V8C14.5534 10.4 16.3134 12.4 18.7934 12.4ZM35.5056 15.24C31.3856 15.24 28.3256 12.06 28.3256 8.04V8C28.3256 4.02 31.3256 0.76 35.6256 0.76C38.2656 0.76 39.8456 1.64 41.1456 2.92L39.1856 5.18C38.1056 4.2 37.0056 3.6 35.6056 3.6C33.2456 3.6 31.5456 5.56 31.5456 7.96V8C31.5456 10.4 33.2056 12.4 35.6056 12.4C37.2056 12.4 38.1856 11.76 39.2856 10.76L41.2456 12.74C39.8056 14.28 38.2056 15.24 35.5056 15.24ZM42.5113 15L48.5113 0.899999H51.3513L57.3513 15H54.1313L52.8513 11.86H46.9313L45.6513 15H42.5113ZM48.0313 9.14H51.7513L49.8913 4.6L48.0313 9.14ZM60.9752 15V3.84H56.7152V0.999999H68.3152V3.84H64.0552V15H60.9752ZM70.8239 15V0.999999H73.9039V15H70.8239ZM84.2027 15.24C79.8827 15.24 76.7827 12.02 76.7827 8.04V8C76.7827 4.02 79.9227 0.76 84.2427 0.76C88.5627 0.76 91.6627 3.98 91.6627 7.96V8C91.6627 11.98 88.5227 15.24 84.2027 15.24ZM84.2427 12.4C86.7227 12.4 88.4427 10.44 88.4427 8.04V8C88.4427 5.6 86.6827 3.6 84.2027 3.6C81.7227 3.6 80.0027 5.56 80.0027 7.96V8C80.0027 10.4 81.7627 12.4 84.2427 12.4ZM94.3948 15V0.999999H97.2348L103.795 9.62V0.999999H106.835V15H104.215L97.4348 6.1V15H94.3948ZM115.176 15.2C113.056 15.2 110.916 14.46 109.236 12.96L111.056 10.78C112.316 11.82 113.636 12.48 115.236 12.48C116.496 12.48 117.256 11.98 117.256 11.16V11.12C117.256 10.34 116.776 9.94 114.436 9.34C111.616 8.62 109.796 7.84 109.796 5.06V5.02C109.796 2.48 111.836 0.799999 114.696 0.799999C116.736 0.799999 118.476 1.44 119.896 2.58L118.296 4.9C117.056 4.04 115.836 3.52 114.656 3.52C113.476 3.52 112.856 4.06 112.856 4.74V4.78C112.856 5.7 113.456 6 115.876 6.62C118.716 7.36 120.316 8.38 120.316 10.82V10.86C120.316 13.64 118.196 15.2 115.176 15.2Z" fill="#D4D8D2"/>
</svg>
