<svg width="370" height="134" viewBox="0 0 370 134" fill="none" xmlns="http://www.w3.org/2000/svg">
<path d="M67.3329 35.968V21.2H7.01288V35.968H29.1649V94H45.1809V35.968H67.3329ZM157.962 94V79.752H118.442V64.464H152.762V50.216H118.442V35.448H157.442V21.2H102.53V94H157.962ZM266.01 94L234.81 20.68H220.042L188.842 94H205.17L211.826 77.672H242.61L249.266 94H266.01ZM236.89 63.528H217.546L227.218 39.92L236.89 63.528ZM369.023 94L337.823 20.68H323.055L291.855 94H308.183L314.839 77.672H345.623L352.279 94H369.023ZM339.903 63.528H320.559L330.231 39.92L339.903 63.528ZM166.759 130.936L164.623 128.776C163.735 129.616 162.895 130.144 161.671 130.144C159.679 130.144 158.407 128.56 158.407 126.592V126.544C158.407 124.648 159.703 123.04 161.527 123.04C162.823 123.04 163.639 123.592 164.455 124.456L166.687 122.056C165.487 120.712 163.975 119.896 161.551 119.896C157.615 119.896 154.807 122.92 154.807 126.592V126.64C154.807 130.312 157.639 133.288 161.503 133.288C164.071 133.288 165.511 132.304 166.759 130.936ZM185.486 133V125.536C185.486 122.056 183.734 119.992 179.75 119.992C177.566 119.992 176.174 120.4 174.758 121.024L175.67 123.808C176.846 123.376 177.83 123.112 179.222 123.112C181.046 123.112 181.982 123.952 181.982 125.464V125.68C181.07 125.368 180.134 125.152 178.838 125.152C175.79 125.152 173.654 126.448 173.654 129.256V129.304C173.654 131.848 175.646 133.24 178.07 133.24C179.846 133.24 181.07 132.592 181.958 131.608V133H185.486ZM182.03 128.464C182.03 129.784 180.878 130.72 179.174 130.72C177.998 130.72 177.182 130.144 177.182 129.16V129.112C177.182 127.96 178.142 127.336 179.702 127.336C180.59 127.336 181.406 127.528 182.03 127.816V128.464ZM201.105 118.696V115.672C200.433 115.456 199.665 115.312 198.513 115.312C195.945 115.312 194.529 116.608 194.529 119.44V120.256H193.017V123.256H194.529V133H198.177V123.256H201.081V120.28H198.129V119.776C198.129 118.816 198.609 118.384 199.449 118.384C200.073 118.384 200.577 118.504 201.105 118.696ZM220.114 126.928V126.88C220.114 123.232 218.146 119.896 213.85 119.896C210.106 119.896 207.49 122.92 207.49 126.592V126.64C207.49 130.576 210.346 133.288 214.21 133.288C216.538 133.288 218.266 132.376 219.466 130.888L217.378 129.04C216.37 129.976 215.482 130.36 214.258 130.36C212.626 130.36 211.474 129.496 211.114 127.84H220.066C220.09 127.504 220.114 127.288 220.114 126.928ZM216.562 125.56H211.066C211.354 123.904 212.338 122.824 213.85 122.824C215.386 122.824 216.346 123.928 216.562 125.56Z" fill="white"/>
<path d="M228 28L244.454 69.25H211.546L228 28Z" fill="white"/>
<path d="M217 78.5C212.937 76.2143 207.346 60.5 222.846 49C228.153 55.5323 232.46 59.0643 230.235 69.1931C232.361 66.0719 236.051 63.3071 242.157 62.7286C243.173 66.8429 243.833 75.7571 238.348 78.5H217Z" fill="#7D9174"/>
</svg>
