<svg width="147" height="63" viewBox="0 0 147 63" fill="none" xmlns="http://www.w3.org/2000/svg">
<path d="M51.494 59.168C49.24 59.168 47.588 57.432 47.588 55.29V55.262C47.588 53.12 49.226 51.356 51.522 51.356C52.936 51.356 53.818 51.832 54.518 52.616L53.216 54.016C52.74 53.512 52.264 53.19 51.508 53.19C50.444 53.19 49.688 54.128 49.688 55.234V55.262C49.688 56.41 50.43 57.334 51.592 57.334C52.306 57.334 52.796 57.026 53.314 56.536L54.56 57.796C53.832 58.594 52.992 59.168 51.494 59.168ZM58.078 59.14C56.664 59.14 55.502 58.328 55.502 56.844V56.816C55.502 55.178 56.748 54.422 58.526 54.422C59.282 54.422 59.828 54.548 60.36 54.73V54.604C60.36 53.722 59.814 53.232 58.75 53.232C57.938 53.232 57.364 53.386 56.678 53.638L56.146 52.014C56.972 51.65 57.784 51.412 59.058 51.412C60.22 51.412 61.06 51.72 61.592 52.252C62.152 52.812 62.404 53.638 62.404 54.646V59H60.346V58.188C59.828 58.762 59.114 59.14 58.078 59.14ZM58.722 57.67C59.716 57.67 60.388 57.124 60.388 56.354V55.976C60.024 55.808 59.548 55.696 59.03 55.696C58.12 55.696 57.56 56.06 57.56 56.732V56.76C57.56 57.334 58.036 57.67 58.722 57.67ZM64.5992 59V53.316H63.7172V51.566H64.5992V51.09C64.5992 50.264 64.8092 49.662 65.2012 49.27C65.5932 48.878 66.1672 48.682 66.9232 48.682C67.5952 48.682 68.0432 48.766 68.4352 48.892V50.656C68.1272 50.544 67.8332 50.474 67.4692 50.474C66.9792 50.474 66.6992 50.726 66.6992 51.286V51.58H68.4212V53.316H66.7272V59H64.5992ZM73.0002 59.168C70.7462 59.168 69.0802 57.586 69.0802 55.29V55.262C69.0802 53.12 70.6062 51.356 72.7902 51.356C75.2962 51.356 76.4442 53.302 76.4442 55.43C76.4442 55.598 76.4302 55.794 76.4162 55.99H71.1942C71.4042 56.956 72.0762 57.46 73.0282 57.46C73.7422 57.46 74.2602 57.236 74.8482 56.69L76.0662 57.768C75.3662 58.636 74.3582 59.168 73.0002 59.168ZM71.1662 54.66H74.3722C74.2462 53.708 73.6862 53.064 72.7902 53.064C71.9082 53.064 71.3342 53.694 71.1662 54.66Z" fill="white"/>
<path d="M11.856 43V16.216H1.632V9.4H29.472V16.216H19.248V43H11.856ZM35.157 43V9.4H60.501V15.976H42.501V22.792H58.341V29.368H42.501V36.424H60.741V43H35.157ZM64.4333 43L78.8333 9.16H85.6493L100.049 43H92.3213L89.2493 35.464H75.0413L71.9693 43H64.4333ZM77.6813 28.936H86.6093L82.1453 18.04L77.6813 28.936ZM101.418 43L115.818 9.16H122.634L137.034 43H129.306L126.234 35.464H112.026L108.954 43H101.418ZM114.666 28.936H123.594L119.13 18.04L114.666 28.936Z" fill="white"/>
<path d="M82.5 17L89.8612 29.75H75.1388L82.5 17Z" fill="white"/>
<path d="M77.1878 36C75.1739 34.7603 72.402 26.2373 80.0857 20C82.7167 23.5429 84.8519 25.4586 83.749 30.9522C84.8024 29.2593 86.6321 27.7598 89.6586 27.446C90.1621 29.6775 90.4894 34.5123 87.7706 36H77.1878Z" fill="#7D9174"/>
</svg>
