<svg width="137" height="52" viewBox="0 0 137 52" fill="none" xmlns="http://www.w3.org/2000/svg">
<path d="M1.68 32V18H5L8.68 23.92L12.36 18H15.68V32H12.62V22.86L8.68 28.84H8.6L4.7 22.92V32H1.68ZM19.1833 32V18H22.2633V32H19.1833ZM25.762 32V18H28.842V29.2H35.822V32H25.762ZM38.1448 32V18H41.2248V24.12L46.9048 18H50.6248L44.9248 23.94L50.8848 32H47.1848L42.8448 26.04L41.2248 27.72V32H38.1448ZM57.5389 32.2C55.4189 32.2 53.2789 31.46 51.5989 29.96L53.4189 27.78C54.6789 28.82 55.9989 29.48 57.5989 29.48C58.8589 29.48 59.6189 28.98 59.6189 28.16V28.12C59.6189 27.34 59.1389 26.94 56.7989 26.34C53.9789 25.62 52.1589 24.84 52.1589 22.06V22.02C52.1589 19.48 54.1989 17.8 57.0589 17.8C59.0989 17.8 60.8389 18.44 62.2589 19.58L60.6589 21.9C59.4189 21.04 58.1989 20.52 57.0189 20.52C55.8389 20.52 55.2189 21.06 55.2189 21.74V21.78C55.2189 22.7 55.8189 23 58.2389 23.62C61.0789 24.36 62.6789 25.38 62.6789 27.82V27.86C62.6789 30.64 60.5589 32.2 57.5389 32.2ZM65.3519 32V18H68.4319V23.54H74.1119V18H77.1919V32H74.1119V26.38H68.4319V32H65.3519ZM79.3472 32L85.3472 17.9H88.1872L94.1872 32H90.9672L89.6872 28.86H83.7672L82.4872 32H79.3472ZM84.8672 26.14H88.5872L86.7272 21.6L84.8672 26.14ZM96.348 32V18H99.428V24.12L105.108 18H108.828L103.128 23.94L109.088 32H105.388L101.048 26.04L99.428 27.72V32H96.348ZM110.957 32V18H121.517V20.74H114.017V23.58H120.617V26.32H114.017V29.26H121.617V32H110.957ZM129.336 32.2C127.216 32.2 125.076 31.46 123.396 29.96L125.216 27.78C126.476 28.82 127.796 29.48 129.396 29.48C130.656 29.48 131.416 28.98 131.416 28.16V28.12C131.416 27.34 130.936 26.94 128.596 26.34C125.776 25.62 123.956 24.84 123.956 22.06V22.02C123.956 19.48 125.996 17.8 128.856 17.8C130.896 17.8 132.636 18.44 134.056 19.58L132.456 21.9C131.216 21.04 129.996 20.52 128.816 20.52C127.636 20.52 127.016 21.06 127.016 21.74V21.78C127.016 22.7 127.616 23 130.036 23.62C132.876 24.36 134.476 25.38 134.476 27.82V27.86C134.476 30.64 132.356 32.2 129.336 32.2Z" fill="#7D9174"/>
</svg>
