<svg width="74" height="16" viewBox="0 0 74 16" fill="none" xmlns="http://www.w3.org/2000/svg">
<path d="M8.0093 15.24C3.6893 15.24 0.589297 12.02 0.589297 8.04V8C0.589297 4.02 3.7293 0.76 8.0493 0.76C12.3693 0.76 15.4693 3.98 15.4693 7.96V8C15.4693 11.98 12.3293 15.24 8.0093 15.24ZM8.0493 12.4C10.5293 12.4 12.2493 10.44 12.2493 8.04V8C12.2493 5.6 10.4893 3.6 8.0093 3.6C5.5293 3.6 3.8093 5.56 3.8093 7.96V8C3.8093 10.4 5.5693 12.4 8.0493 12.4ZM18.2015 15V0.999999H24.6015C26.3815 0.999999 27.7615 1.5 28.6815 2.42C29.4615 3.2 29.8815 4.3 29.8815 5.62V5.66C29.8815 7.92 28.6615 9.34 26.8815 10L30.3015 15H26.7015L23.7015 10.52H21.2815V15H18.2015ZM21.2815 7.8H24.4015C25.9015 7.8 26.7615 7 26.7615 5.82V5.78C26.7615 4.46 25.8415 3.78 24.3415 3.78H21.2815V7.8ZM32.6546 15V0.999999H38.1146C42.5146 0.999999 45.5546 4.02 45.5546 7.96V8C45.5546 11.94 42.5146 15 38.1146 15H32.6546ZM35.7346 12.22H38.1146C40.6346 12.22 42.3346 10.52 42.3346 8.04V8C42.3346 5.52 40.6346 3.78 38.1146 3.78H35.7346V12.22ZM48.2991 15V0.999999H58.8591V3.74H51.3591V6.58H57.9591V9.32H51.3591V12.26H58.9591V15H48.2991ZM61.6976 15V0.999999H68.0976C69.8776 0.999999 71.2576 1.5 72.1776 2.42C72.9576 3.2 73.3776 4.3 73.3776 5.62V5.66C73.3776 7.92 72.1576 9.34 70.3776 10L73.7976 15H70.1976L67.1976 10.52H64.7776V15H61.6976ZM64.7776 7.8H67.8976C69.3976 7.8 70.2576 7 70.2576 5.82V5.78C70.2576 4.46 69.3376 3.78 67.8376 3.78H64.7776V7.8Z" fill="#D4D8D2"/>
</svg>
