<svg width="168" height="64" viewBox="0 0 168 64" fill="none" xmlns="http://www.w3.org/2000/svg">
<path d="M40.5139 41.36C34.0339 41.36 29.3839 36.53 29.3839 30.56V30.5C29.3839 24.53 34.0939 19.64 40.5739 19.64C47.0539 19.64 51.7039 24.47 51.7039 30.44V30.5C51.7039 36.47 46.9939 41.36 40.5139 41.36ZM40.5739 37.1C44.2939 37.1 46.8739 34.16 46.8739 30.56V30.5C46.8739 26.9 44.2339 23.9 40.5139 23.9C36.7939 23.9 34.2139 26.84 34.2139 30.44V30.5C34.2139 34.1 36.8539 37.1 40.5739 37.1ZM55.8022 41V20H65.4022C68.0722 20 70.1422 20.75 71.5222 22.13C72.6922 23.3 73.3222 24.95 73.3222 26.93V26.99C73.3222 30.38 71.4922 32.51 68.8222 33.5L73.9522 41H68.5522L64.0522 34.28H60.4222V41H55.8022ZM60.4222 30.2H65.1022C67.3522 30.2 68.6422 29 68.6422 27.23V27.17C68.6422 25.19 67.2622 24.17 65.0122 24.17H60.4222V30.2ZM77.4819 41V20H85.6719C92.2719 20 96.8319 24.53 96.8319 30.44V30.5C96.8319 36.41 92.2719 41 85.6719 41H77.4819ZM82.1019 36.83H85.6719C89.4519 36.83 92.0019 34.28 92.0019 30.56V30.5C92.0019 26.78 89.4519 24.17 85.6719 24.17H82.1019V36.83ZM100.949 41V20H116.789V24.11H105.539V28.37H115.439V32.48H105.539V36.89H116.939V41H100.949ZM121.046 41V20H130.646C133.316 20 135.386 20.75 136.766 22.13C137.936 23.3 138.566 24.95 138.566 26.93V26.99C138.566 30.38 136.736 32.51 134.066 33.5L139.196 41H133.796L129.296 34.28H125.666V41H121.046ZM125.666 30.2H130.346C132.596 30.2 133.886 29 133.886 27.23V27.17C133.886 25.19 132.506 24.17 130.256 24.17H125.666V30.2Z" fill="#D4D8D2"/>
</svg>
