<svg width="450" height="68" viewBox="0 0 450 68" fill="none" xmlns="http://www.w3.org/2000/svg">
<path d="M4.2195 43V9.4H17.9475C25.9635 9.4 30.8115 14.152 30.8115 21.016V21.112C30.8115 28.888 24.7635 32.92 17.2275 32.92H11.6115V43H4.2195ZM11.6115 26.344H17.4675C21.1635 26.344 23.3235 24.136 23.3235 21.256V21.16C23.3235 17.848 21.0195 16.072 17.3235 16.072H11.6115V26.344ZM36.282 43V9.4H43.674V36.28H60.426V43H36.282ZM63.1208 43L77.5208 9.16H84.3368L98.7368 43H91.0088L87.9368 35.464H73.7288L70.6568 43H63.1208ZM76.3688 28.936H85.2968L80.8328 18.04L76.3688 28.936ZM117.51 43.576C107.622 43.576 100.278 35.944 100.278 26.296V26.2C100.278 16.648 107.478 8.824 117.798 8.824C124.134 8.824 127.926 10.936 131.046 14.008L126.342 19.432C123.75 17.08 121.11 15.64 117.75 15.64C112.086 15.64 108.006 20.344 108.006 26.104V26.2C108.006 31.96 111.99 36.76 117.75 36.76C121.59 36.76 123.942 35.224 126.582 32.824L131.286 37.576C127.83 41.272 123.99 43.576 117.51 43.576ZM137.204 43V9.4H162.548V15.976H144.548V22.792H160.388V29.368H144.548V36.424H162.788V43H137.204ZM180.871 43L195.271 9.16H202.087L216.487 43H208.759L205.687 35.464H191.479L188.407 43H180.871ZM194.119 28.936H203.047L198.583 18.04L194.119 28.936ZM221.673 43V9.4H228.489L244.233 30.088V9.4H251.529V43H245.241L228.969 21.64V43H221.673ZM290.305 43.576C279.937 43.576 272.497 35.848 272.497 26.296V26.2C272.497 16.648 280.033 8.824 290.401 8.824C300.769 8.824 308.209 16.552 308.209 26.104V26.2C308.209 35.752 300.673 43.576 290.305 43.576ZM290.401 36.76C296.353 36.76 300.481 32.056 300.481 26.296V26.2C300.481 20.44 296.257 15.64 290.305 15.64C284.353 15.64 280.225 20.344 280.225 26.104V26.2C280.225 31.96 284.449 36.76 290.401 36.76ZM314.766 43V9.4H330.126C334.398 9.4 337.71 10.6 339.918 12.808C341.79 14.68 342.798 17.32 342.798 20.488V20.584C342.798 26.008 339.87 29.416 335.598 31L343.806 43H335.166L327.966 32.248H322.158V43H314.766ZM322.158 25.72H329.646C333.246 25.72 335.31 23.8 335.31 20.968V20.872C335.31 17.704 333.102 16.072 329.502 16.072H322.158V25.72ZM349.454 43V9.4H362.558C373.118 9.4 380.414 16.648 380.414 26.104V26.2C380.414 35.656 373.118 43 362.558 43H349.454ZM356.846 36.328H362.558C368.606 36.328 372.686 32.248 372.686 26.296V26.2C372.686 20.248 368.606 16.072 362.558 16.072H356.846V36.328ZM387.001 43V9.4H412.345V15.976H394.345V22.792H410.185V29.368H394.345V36.424H412.585V43H387.001ZM419.157 43V9.4H434.517C438.789 9.4 442.101 10.6 444.309 12.808C446.181 14.68 447.189 17.32 447.189 20.488V20.584C447.189 26.008 444.261 29.416 439.989 31L448.197 43H439.557L432.357 32.248H426.549V43H419.157ZM426.549 25.72H434.037C437.637 25.72 439.701 23.8 439.701 20.968V20.872C439.701 17.704 437.493 16.072 433.893 16.072H426.549V25.72Z" fill="#465240"/>
<line x1="150" y1="67" x2="300" y2="67" stroke="#465240" stroke-width="2"/>
</svg>
