<svg width="40" height="40" viewBox="0 0 40 40" fill="none" xmlns="http://www.w3.org/2000/svg">
<path d="M3.3335 3.33333H6.23351C8.03351 3.33333 9.45017 4.88333 9.30017 6.66667L7.91683 23.2667C7.6835 25.9833 9.83348 28.3166 12.5668 28.3166H30.3168C32.7168 28.3166 34.8168 26.35 35.0002 23.9667L35.9002 11.4667C36.1002 8.70001 34.0002 6.44999 31.2168 6.44999H9.70017" stroke="#465240" stroke-width="1.5" stroke-miterlimit="10" stroke-linecap="round" stroke-linejoin="round"/>
<path d="M27.0833 36.6667C28.2339 36.6667 29.1667 35.7339 29.1667 34.5833C29.1667 33.4327 28.2339 32.5 27.0833 32.5C25.9327 32.5 25 33.4327 25 34.5833C25 35.7339 25.9327 36.6667 27.0833 36.6667Z" stroke="#465240" stroke-width="1.5" stroke-miterlimit="10" stroke-linecap="round" stroke-linejoin="round"/>
<path d="M13.7498 36.6667C14.9004 36.6667 15.8332 35.7339 15.8332 34.5833C15.8332 33.4327 14.9004 32.5 13.7498 32.5C12.5992 32.5 11.6665 33.4327 11.6665 34.5833C11.6665 35.7339 12.5992 36.6667 13.7498 36.6667Z" stroke="#465240" stroke-width="1.5" stroke-miterlimit="10" stroke-linecap="round" stroke-linejoin="round"/>
<path d="M15 13.3333H35" stroke="#465240" stroke-width="1.5" stroke-miterlimit="10" stroke-linecap="round" stroke-linejoin="round"/>
</svg>
