<svg width="146" height="29" viewBox="0 0 146 29" fill="none" xmlns="http://www.w3.org/2000/svg">
<path d="M6.66 18.2C4.54 18.2 2.4 17.46 0.72 15.96L2.54 13.78C3.8 14.82 5.12 15.48 6.72 15.48C7.98 15.48 8.74 14.98 8.74 14.16V14.12C8.74 13.34 8.26 12.94 5.92 12.34C3.1 11.62 1.28 10.84 1.28 8.06V8.02C1.28 5.48 3.32 3.8 6.18 3.8C8.22 3.8 9.96 4.44 11.38 5.58L9.78 7.9C8.54 7.04 7.32 6.52 6.14 6.52C4.96 6.52 4.34 7.06 4.34 7.74V7.78C4.34 8.7 4.94 9 7.36 9.62C10.2 10.36 11.8 11.38 11.8 13.82V13.86C11.8 16.64 9.68 18.2 6.66 18.2ZM15.213 6.1V3.4H18.413V6.1H15.213ZM15.293 18V7.28H18.333V18H15.293ZM26.9881 21.24C25.2481 21.24 23.6081 20.84 22.2481 20.12L23.2881 17.84C24.3881 18.46 25.4881 18.82 26.9081 18.82C28.9881 18.82 29.9681 17.82 29.9681 15.9V15.38C29.0681 16.46 28.0881 17.12 26.4681 17.12C23.9681 17.12 21.7081 15.3 21.7081 12.12V12.08C21.7081 8.88 24.0081 7.08 26.4681 7.08C28.1281 7.08 29.1081 7.78 29.9281 8.68V7.28H32.9681V15.58C32.9681 17.5 32.5081 18.9 31.6081 19.8C30.6081 20.8 29.0681 21.24 26.9881 21.24ZM27.3481 14.6C28.8281 14.6 29.9681 13.58 29.9681 12.12V12.08C29.9681 10.62 28.8281 9.6 27.3481 9.6C25.8681 9.6 24.7481 10.62 24.7481 12.08V12.12C24.7481 13.6 25.8681 14.6 27.3481 14.6ZM36.6842 18V7.28H39.7242V8.8C40.4242 7.9 41.3242 7.08 42.8642 7.08C45.1642 7.08 46.5042 8.6 46.5042 11.06V18H43.4642V12.02C43.4642 10.58 42.7842 9.84 41.6242 9.84C40.4642 9.84 39.7242 10.58 39.7242 12.02V18H36.6842ZM63.3013 18.22C59.5413 18.22 57.2413 16.12 57.2413 12V4H60.3213V11.92C60.3213 14.2 61.4613 15.38 63.3413 15.38C65.2213 15.38 66.3613 14.24 66.3613 12.02V4H69.4413V11.9C69.4413 16.14 67.0613 18.22 63.3013 18.22ZM73.2584 21.2V7.28H76.2984V8.82C77.0384 7.82 78.0584 7.08 79.6384 7.08C82.1384 7.08 84.5184 9.04 84.5184 12.62V12.66C84.5184 16.24 82.1784 18.2 79.6384 18.2C78.0184 18.2 77.0184 17.46 76.2984 16.6V21.2H73.2584ZM78.8584 15.62C80.2784 15.62 81.4784 14.46 81.4784 12.66V12.62C81.4784 10.84 80.2784 9.66 78.8584 9.66C77.4384 9.66 76.2584 10.84 76.2584 12.62V12.66C76.2584 14.44 77.4384 15.62 78.8584 15.62ZM95.0706 18V4H98.1506V9.54H103.831V4H106.911V18H103.831V12.38H98.1506V18H95.0706ZM116.026 18.24C112.806 18.24 110.426 15.98 110.426 12.7V12.66C110.426 9.6 112.606 7.08 115.726 7.08C119.306 7.08 120.946 9.86 120.946 12.9C120.946 13.14 120.926 13.42 120.906 13.7H113.446C113.746 15.08 114.706 15.8 116.066 15.8C117.086 15.8 117.826 15.48 118.666 14.7L120.406 16.24C119.406 17.48 117.966 18.24 116.026 18.24ZM113.406 11.8H117.986C117.806 10.44 117.006 9.52 115.726 9.52C114.466 9.52 113.646 10.42 113.406 11.8ZM124.212 18V7.28H127.252V9.44C127.872 7.96 128.872 7 130.672 7.08V10.26H130.512C128.492 10.26 127.252 11.48 127.252 14.04V18H124.212ZM138.358 18.24C135.138 18.24 132.758 15.98 132.758 12.7V12.66C132.758 9.6 134.938 7.08 138.058 7.08C141.638 7.08 143.278 9.86 143.278 12.9C143.278 13.14 143.258 13.42 143.238 13.7H135.778C136.078 15.08 137.038 15.8 138.398 15.8C139.418 15.8 140.158 15.48 140.998 14.7L142.738 16.24C141.738 17.48 140.298 18.24 138.358 18.24ZM135.738 11.8H140.318C140.138 10.44 139.338 9.52 138.058 9.52C136.798 9.52 135.978 10.42 135.738 11.8Z" fill="#FCE496"/>
<line x1="4.37114e-08" y1="22.5" x2="146" y2="22.5" stroke="#FCE496"/>
</svg>
