<svg width="511" height="68" viewBox="0 0 511 68" fill="none" xmlns="http://www.w3.org/2000/svg">
<path d="M18.3136 43.528C9.28963 43.528 3.76963 38.488 3.76963 28.6V9.4H11.1616V28.408C11.1616 33.88 13.8976 36.712 18.4096 36.712C22.9216 36.712 25.6576 33.976 25.6576 28.648V9.4H33.0496V28.36C33.0496 38.536 27.3376 43.528 18.3136 43.528ZM52.5309 43.48C47.4429 43.48 42.3069 41.704 38.2749 38.104L42.6429 32.872C45.6669 35.368 48.8349 36.952 52.6749 36.952C55.6989 36.952 57.5229 35.752 57.5229 33.784V33.688C57.5229 31.816 56.3709 30.856 50.7549 29.416C43.9869 27.688 39.6189 25.816 39.6189 19.144V19.048C39.6189 12.952 44.5149 8.92 51.3789 8.92C56.2749 8.92 60.4509 10.456 63.8589 13.192L60.0189 18.76C57.0429 16.696 54.1149 15.448 51.2829 15.448C48.4509 15.448 46.9629 16.744 46.9629 18.376V18.472C46.9629 20.68 48.4029 21.4 54.2109 22.888C61.0269 24.664 64.8669 27.112 64.8669 32.968V33.064C64.8669 39.736 59.7789 43.48 52.5309 43.48ZM71.282 43V9.4H96.626V15.976H78.626V22.792H94.466V29.368H78.626V36.424H96.866V43H71.282ZM103.438 43V9.4H118.798C123.07 9.4 126.382 10.6 128.59 12.808C130.462 14.68 131.47 17.32 131.47 20.488V20.584C131.47 26.008 128.542 29.416 124.27 31L132.478 43H123.838L116.638 32.248H110.83V43H103.438ZM110.83 25.72H118.318C121.918 25.72 123.982 23.8 123.982 20.968V20.872C123.982 17.704 121.774 16.072 118.174 16.072H110.83V25.72ZM152.852 43V9.4H160.244V43H152.852ZM168.641 43V9.4H175.457L191.201 30.088V9.4H198.497V43H192.209L175.937 21.64V43H168.641ZM206.563 43V9.4H232.147V16.12H213.955V23.272H229.987V29.992H213.955V43H206.563ZM254.383 43.576C244.015 43.576 236.575 35.848 236.575 26.296V26.2C236.575 16.648 244.111 8.824 254.479 8.824C264.847 8.824 272.287 16.552 272.287 26.104V26.2C272.287 35.752 264.751 43.576 254.383 43.576ZM254.479 36.76C260.431 36.76 264.559 32.056 264.559 26.296V26.2C264.559 20.44 260.335 15.64 254.383 15.64C248.431 15.64 244.303 20.344 244.303 26.104V26.2C244.303 31.96 248.527 36.76 254.479 36.76ZM278.845 43V9.4H294.205C298.477 9.4 301.789 10.6 303.997 12.808C305.869 14.68 306.877 17.32 306.877 20.488V20.584C306.877 26.008 303.949 29.416 299.677 31L307.885 43H299.245L292.045 32.248H286.237V43H278.845ZM286.237 25.72H293.725C297.325 25.72 299.389 23.8 299.389 20.968V20.872C299.389 17.704 297.181 16.072 293.581 16.072H286.237V25.72ZM313.532 43V9.4H321.5L330.332 23.608L339.164 9.4H347.132V43H339.788V21.064L330.332 35.416H330.14L320.78 21.208V43H313.532ZM352.324 43L366.724 9.16H373.54L387.94 43H380.212L377.14 35.464H362.932L359.86 43H352.324ZM365.572 28.936H374.5L370.036 18.04L365.572 28.936ZM396.637 43V16.216H386.413V9.4H414.253V16.216H404.029V43H396.637ZM420.274 43V9.4H427.666V43H420.274ZM452.383 43.576C442.015 43.576 434.575 35.848 434.575 26.296V26.2C434.575 16.648 442.111 8.824 452.479 8.824C462.847 8.824 470.287 16.552 470.287 26.104V26.2C470.287 35.752 462.751 43.576 452.383 43.576ZM452.479 36.76C458.431 36.76 462.559 32.056 462.559 26.296V26.2C462.559 20.44 458.335 15.64 452.383 15.64C446.431 15.64 442.303 20.344 442.303 26.104V26.2C442.303 31.96 446.527 36.76 452.479 36.76ZM476.845 43V9.4H483.661L499.405 30.088V9.4H506.701V43H500.413L484.141 21.64V43H476.845Z" fill="#465240"/>
<line x1="180" y1="67" x2="330" y2="67" stroke="#465240" stroke-width="2"/>
</svg>
